<svg width="1440" height="1024" viewBox="0 0 1440 1024" fill="none" xmlns="http://www.w3.org/2000/svg">
<g clip-path="url(#clip0_40_398)">
<rect width="1440" height="1024" fill="#8517DC"/>
<rect width="1440" height="1024" fill="white"/>
<path d="M507.834 139.891C537.715 163.022 541.374 227.722 527.653 287.058C514.237 346.059 484.051 399.361 450.511 400.031C416.971 400.367 380.077 347.735 342.268 319.24C304.459 290.746 266.04 286.052 247.136 258.563C228.231 231.074 228.841 180.454 251.709 159.335C274.578 138.215 319.095 146.931 370.015 141.567C420.63 136.204 477.648 117.095 507.834 139.891Z" fill="#8517DC"/>
<circle cx="260" cy="920" r="124" fill="#A547EF" fill-opacity="0.1"/>
<path d="M0 992.288L48 976.288C96 960.288 192 928.288 288 901.588C384 875.288 480 853.288 576 869.588C672 885.288 768 939.288 864 954.988C960 971.288 1056 949.288 1152 954.988C1248 960.288 1344 992.288 1392 1008.29L1440 1024.29H1392C1344 1024.29 1248 1024.29 1152 1024.29C1056 1024.29 960 1024.29 864 1024.29C768 1024.29 672 1024.29 576 1024.29C480 1024.29 384 1024.29 288 1024.29C192 1024.29 96 1024.29 48 1024.29H0V992.288Z" fill="#8517DC"/>
<circle cx="1263" cy="592" r="124" fill="#A547EF" fill-opacity="0.1"/>
</g>
<defs>
<clipPath id="clip0_40_398">
<rect width="1440" height="1024" fill="white"/>
</clipPath>
</defs>
</svg>
