<svg width="1440" height="1024" viewBox="0 0 1440 1024" fill="none" xmlns="http://www.w3.org/2000/svg">
<g clip-path="url(#clip0_40_398)">
<rect width="1440" height="1024" fill="#8517DC"/>
<rect width="1440" height="1024" fill="white"/>
<path d="M504.877 272.029C545.106 298.732 550.032 373.423 531.56 441.922C513.498 510.034 472.858 571.566 427.703 572.34C382.548 572.727 332.878 511.969 281.976 479.074C231.074 446.179 179.351 440.761 153.9 409.027C128.449 377.293 129.27 318.856 160.057 294.475C190.845 270.094 250.778 280.156 319.331 273.964C387.474 267.772 464.238 245.713 504.877 272.029Z" fill="#8517DC"/>
<circle cx="260" cy="920" r="124" fill="#A547EF" fill-opacity="0.1"/>
<path d="M0 992.288L48 976.288C96 960.288 192 928.288 288 901.588C384 875.288 480 853.288 576 869.588C672 885.288 768 939.288 864 954.988C960 971.288 1056 949.288 1152 954.988C1248 960.288 1344 992.288 1392 1008.29L1440 1024.29H1392C1344 1024.29 1248 1024.29 1152 1024.29C1056 1024.29 960 1024.29 864 1024.29C768 1024.29 672 1024.29 576 1024.29C480 1024.29 384 1024.29 288 1024.29C192 1024.29 96 1024.29 48 1024.29H0V992.288Z" fill="#8517DC"/>
<circle cx="1263" cy="592" r="124" fill="#A547EF" fill-opacity="0.1"/>
</g>
<defs>
<clipPath id="clip0_40_398">
<rect width="1440" height="1024" fill="white"/>
</clipPath>
</defs>
</svg>
