<svg width="439" height="286" viewBox="0 0 439 286" fill="none" xmlns="http://www.w3.org/2000/svg">
<g clip-path="url(#clip0_49_431)">
<path d="M419.514 158.117L418.139 172.073L414.726 206.739H346.161C346.696 198.97 347.428 187.786 348.21 175.713C348.287 174.508 348.368 173.294 348.445 172.073C350.406 141.726 352.551 107.384 352.551 107.384L361.566 109.524L379.055 113.669L386.181 115.357L405.265 119.886C414.78 122.139 421.325 139.699 419.514 158.117V158.117Z" fill="#F2F2F2"/>
<path d="M367.651 51.2253L376.082 70.0312L359.877 84.6693L352.964 61.5533L367.651 51.2253Z" fill="#FFB6B6"/>
<path d="M356.917 69.0165C368.453 69.0165 377.805 57.097 377.805 42.3935C377.805 27.69 368.453 15.7704 356.917 15.7704C345.38 15.7704 336.028 27.69 336.028 42.3935C336.028 57.097 345.38 69.0165 356.917 69.0165Z" fill="#FFB6B6"/>
<path d="M355.417 48.3453C353.758 45.128 354.409 43.4452 353.02 42.2628C353.02 42.2628 352.462 41.787 348.463 41.5158C347.567 33.3025 346.45 32.3065 346.45 32.3065C345.161 31.1585 343.25 31.5315 342.06 32.2336C339.545 33.7185 339.837 36.9261 338.143 37.5399C335.804 38.3878 331.547 33.6078 331.128 28.1356C330.786 23.6719 333.042 19.3365 333.937 19.5659C334.824 19.7933 336.949 16.3364 338.096 16.3898C338.879 16.4262 342.08 14.653 342.941 14.7916C343.881 14.9431 346.982 17.0052 347.111 16.5341C348.009 13.2601 347.745 12.3517 348.507 11.4151C349.857 9.75542 352.065 10.9112 355.529 11.5316C362.657 12.8083 363.901 9.81271 367.554 11.8431C369.4 12.8688 370.944 15.6349 373.956 21.1253C378.17 28.8035 380.277 32.6426 380.29 37.1204C380.304 41.6869 378.569 41.397 377.807 48.1574C376.958 55.6828 378.761 59.1238 376.792 61.5687C375.27 63.4582 372.177 63.9068 370.551 62.2484C367.769 59.4091 371.41 52.558 368.331 47.5525C366.441 44.4799 362.639 43.1128 360.898 44.6316C358.929 46.3489 360.014 51.3895 358.629 51.8675C357.443 52.2768 355.706 48.9059 355.417 48.3453L355.417 48.3453Z" fill="#2F2E41"/>
<path d="M404.075 153.201C403.492 165.898 401.178 169.907 400.368 184.902C400.19 188.194 400.084 192.015 400.084 196.572C400.084 197.734 400.089 198.858 400.089 199.955C400.089 202.291 400.054 204.499 399.841 206.739C399.679 208.527 399.401 210.328 398.94 212.226H353.951C353.946 212.213 353.946 212.2 353.941 212.187C353.678 210.728 353.511 209.334 353.384 207.998C353.343 207.572 353.308 207.152 353.278 206.739C353.237 206.255 353.201 205.777 353.166 205.306C353.029 203.428 352.893 201.653 352.568 199.955C352.133 197.612 351.343 195.404 349.722 193.274C349.059 192.403 348.396 191.725 347.747 191.131C347.621 191.021 347.499 190.911 347.372 190.802C345.579 189.233 343.883 188.103 342.414 184.902C342.389 184.857 342.369 184.805 342.348 184.76C342.095 184.198 341.437 182.726 340.96 180.764C340.459 178.724 340.155 176.162 340.702 173.541C342.004 167.331 346.825 166.712 350.766 160.437C351.191 159.76 351.611 159.011 352.011 158.178C353.794 154.486 354.275 151.233 354.842 147.366C354.933 146.74 355.015 146.12 355.08 145.52C355.131 145.068 355.177 144.623 355.212 144.184C355.526 140.498 355.374 137.322 355.005 134.482C353.799 125.18 350.244 119.422 352.756 111.076C353.546 108.455 354.665 106.486 355.795 104.802C358.185 101.232 360.641 98.9148 360.216 94.3061C359.785 89.6584 357.02 89.0192 356.712 84.959C356.554 82.9065 357.081 80.744 358.069 78.6203V78.614C361.229 71.7779 369.12 65.4843 374.133 65.6845C375.06 65.7169 375.881 65.9814 376.564 66.4913C379.041 68.3503 378.008 72.4105 381.801 78.104C384.622 82.3319 387.812 84.0232 389.023 84.8235C393.819 88.0125 397.719 97.4173 400.368 109.443C400.388 109.533 400.408 109.624 400.428 109.721C402.064 117.254 403.219 125.806 403.792 134.482C404.034 138.155 404.176 141.847 404.206 145.5C404.232 148.418 404.181 150.949 404.075 153.201V153.201Z" fill="#6C63FF"/>
<path d="M370.386 196.702L369.469 199.955L368.892 201.995L367.554 206.739L366.005 212.226H356.043L357.714 206.739L358.489 204.183L359.775 199.955L361.933 192.854L370.386 196.702Z" fill="#FFB6B6"/>
<path d="M400.525 108.333C400.5 108.752 400.464 109.217 400.428 109.721C400.034 114.846 399.101 124.018 397.739 134.482C397.02 140.001 396.179 145.881 395.232 151.723C393.197 164.33 390.664 176.743 387.803 184.902C387.291 186.374 386.764 187.703 386.227 188.878C385.817 189.775 385.387 190.66 384.936 191.531C383.477 194.391 381.841 197.102 380.145 199.632C380.079 199.742 380.003 199.845 379.927 199.955C379.654 200.368 379.37 200.775 379.086 201.181C377.699 203.176 376.281 205.035 374.908 206.739C373.237 208.818 371.626 210.657 370.183 212.226H354.007L353.941 212.187L351.611 210.87C351.611 210.87 352.275 209.876 353.384 207.998C353.612 207.617 353.855 207.197 354.118 206.739C354.442 206.177 354.792 205.558 355.166 204.886C355.946 203.479 356.833 201.827 357.785 199.955C359.629 196.334 361.73 191.88 363.852 186.722C364.096 186.122 364.343 185.515 364.592 184.902C364.597 184.883 364.607 184.863 364.612 184.844C365.032 183.798 365.448 182.72 365.863 181.623C369.383 172.289 370.391 164.543 370.68 162.032C371.085 158.482 371.646 153.517 371.495 148.057C371.393 144.455 370.983 140.646 370.006 136.864V136.857C369.803 136.063 369.575 135.27 369.317 134.482C368.856 133.068 368.309 131.674 367.661 130.299C364.799 124.244 362.475 123.992 360.626 117.395C360.079 115.44 358.838 111.024 359.218 106.364V106.358C359.264 105.783 359.34 105.202 359.441 104.621V104.615C359.466 104.453 359.502 104.286 359.538 104.124C359.826 102.698 360.302 101.284 361.026 99.941C362.439 97.3335 364.369 95.784 366.096 94.8611L366.101 94.8545C368.096 93.7961 369.818 93.5701 370.153 93.5314C377.552 92.6924 383.29 100.619 386.425 104.95C387.635 106.622 388.745 108.023 389.758 109.165C397.643 118.138 399.806 112.406 400.367 109.443C400.454 108.985 400.5 108.591 400.525 108.333V108.333Z" fill="#6C63FF"/>
<path d="M400.551 107.997C400.551 108.029 400.546 108.139 400.525 108.32C400.535 108.223 400.541 108.126 400.546 108.036C400.546 108.016 400.546 108.003 400.551 107.997V107.997Z" fill="#6C63FF"/>
<path d="M360.327 244.204H88.8425C86.3201 244.204 84.2642 246.818 84.2642 250.033C84.2642 253.254 86.3201 255.868 88.8425 255.868H360.327C362.849 255.868 364.901 253.254 364.901 250.033C364.901 246.818 362.849 244.204 360.327 244.204Z" fill="#E6E6E6"/>
<path d="M300.08 274.336H149.085C146.563 274.336 144.512 276.95 144.512 280.165C144.512 283.379 146.563 286 149.085 286H300.08C302.602 286 304.658 283.379 304.658 280.165C304.658 276.95 302.602 274.336 300.08 274.336V274.336Z" fill="#E6E6E6"/>
<path d="M119.052 52.4628L136.162 43.2853L143.501 62.4601L125.521 71.8137L119.052 52.4628Z" fill="#FFB6B6"/>
<path opacity="0.1" d="M119.052 52.4628L136.162 43.2853L143.501 62.4601L125.521 71.8137L119.052 52.4628Z" fill="black"/>
<path d="M121.484 45.156L138.364 69.943C138.364 69.943 126.622 117.179 114.88 121.388C103.137 125.597 81.4881 146.175 81.4881 146.175L54.3347 123.726L67.5445 98.9391C67.5445 98.9391 99.4681 43.2853 107.908 43.2853C116.347 43.2853 121.484 45.156 121.484 45.156V45.156Z" fill="#6C63FF"/>
<path d="M98.6792 206.739H59.3875L56.9033 202.507L46.7611 185.226L44.4274 181.251C44.4274 181.251 35.6209 160.673 37.4556 141.966C39.2903 123.258 58.371 119.049 58.371 119.049H59.1563L82.5156 145.211L81.1212 169.559L88.5187 185.226L98.6792 206.739V206.739Z" fill="#2F2E41"/>
<path d="M67.4343 206.739H56.9032V186.863L67.4343 206.739Z" fill="#2F2E41"/>
<path d="M294.576 176.565L293.266 185.226L290.015 206.739H224.704C225.214 201.917 225.911 194.977 226.656 187.485C226.73 186.737 226.807 185.984 226.88 185.226C228.748 166.393 230.792 145.08 230.792 145.08L239.378 146.409L256.037 148.981L262.825 150.028L281.003 152.839C290.067 154.238 296.301 165.135 294.576 176.565H294.576Z" fill="#F2F2F2"/>
<path d="M387.005 206.739H351.58C352.12 205.93 352.424 205.463 352.424 205.463L363.043 203.227L384.924 198.625C384.924 198.625 385.922 201.913 387.005 206.739V206.739Z" fill="#2F2E41"/>
<path d="M236.745 61.8171L252.15 89.5852L225.278 90.608L222.394 64.5125L236.745 61.8171Z" fill="#A0616A"/>
<path opacity="0.1" d="M236.745 61.8171L252.15 89.5852L225.278 90.608L222.394 64.5125L236.745 61.8171Z" fill="black"/>
<path d="M160.772 119.351C158.795 112.083 154.251 107.492 150.622 109.096C146.993 110.7 145.655 117.891 147.633 125.161C148.392 128.079 149.688 130.723 151.413 132.871L160.094 163.53L171.295 158.032L161.548 128.391C161.86 125.342 161.594 122.242 160.772 119.351V119.351Z" fill="#A0616A"/>
<path d="M265.052 105.201L265.031 133.501L262.965 143.953L258.716 165.453L255.622 185.226L253.318 199.958L252.496 205.219C251.876 205.748 251.259 206.253 250.643 206.739H196.971C193.922 204.406 192.215 202.591 192.215 202.591C192.215 202.591 193.059 201.581 194.024 199.958C195.654 197.217 197.624 192.728 196.417 188.439C196.164 187.541 196.098 186.447 196.175 185.226C196.666 177.173 203.293 163.554 203.293 163.554L201.921 143.341L201.319 134.483L205.562 91.2924L219.392 81.0456L221.78 80.7511L245.348 79.1283L255.089 79.8438L255.533 79.9982L265.052 105.201V105.201Z" fill="#CCCCCC"/>
<path d="M266.098 206.739H254.356L253.839 199.958L253.828 199.822L257.152 199.532L265.801 198.779L265.952 202.839L266.069 205.954L266.098 206.739Z" fill="#FFB6B6"/>
<path d="M268.989 112.044L273.922 148.929L269.896 185.226L269.269 190.876L268.161 200.851L267.819 203.919L267.83 204.251L267.915 206.739H253.971L253.457 199.958L253.413 199.35L252.364 185.46L252.346 185.226L250.118 155.772L254.485 134.483L254.808 132.916V132.911L256.708 96.4605L255.236 79.8953L255.222 79.7409C255.251 79.7643 255.277 79.7877 255.306 79.8111C255.383 79.8719 255.46 79.9327 255.533 79.9982C264.105 86.9292 269.213 99.0889 268.989 112.044V112.044Z" fill="#CCCCCC"/>
<path d="M210.557 98.3605L205.195 91.2919C205.195 91.2919 193.717 97.8873 193.145 101.546C192.573 105.205 172.306 158.948 172.306 158.948L163.489 128.933L152.011 138.7C152.011 138.7 161.221 185.299 169.833 187.487C178.446 189.675 207.312 132.332 207.312 132.332L210.557 98.3605H210.557Z" fill="#CCCCCC"/>
<path d="M428.278 184.902H10.7167C4.80638 184.902 0 191.034 0 198.567C0 206.1 4.80637 212.226 10.7167 212.226H428.278C434.189 212.226 439 206.1 439 198.567C439 191.034 434.189 184.902 428.278 184.902Z" fill="#E6E6E6"/>
<path d="M262.608 143.262L261.796 191.547C261.718 196.221 258.722 199.958 255.054 199.958H185.365C181.783 199.958 178.826 196.39 178.631 191.832L176.56 143.547C176.349 138.623 179.424 134.483 183.294 134.483H255.866C259.647 134.483 262.689 138.444 262.608 143.262V143.262Z" fill="#3F3D56"/>
<path d="M150.105 64.1184C159.314 64.1184 166.779 54.604 166.779 42.8674C166.779 31.1307 159.314 21.6163 150.105 21.6163C140.897 21.6163 133.432 31.1307 133.432 42.8674C133.432 54.604 140.897 64.1184 150.105 64.1184Z" fill="#FFB6B6"/>
<path d="M122.218 98.4715L124.053 123.726L136.529 187.798L125.751 192.613L107.541 122.791L105.026 94.73L122.218 98.4715Z" fill="#FFB6B6"/>
<path d="M117.255 143.262L116.444 191.547C116.365 196.221 113.37 199.958 109.702 199.958H40.0121C36.4307 199.958 33.474 196.39 33.2785 191.832L31.2074 143.547C30.9962 138.623 34.0719 134.483 37.941 134.483H110.513C114.294 134.483 117.336 138.444 117.255 143.262V143.262Z" fill="#3F3D56"/>
<path d="M138.515 200.284C145.788 200.284 151.683 196.961 151.683 192.861C151.683 188.761 145.788 185.438 138.515 185.438C131.243 185.438 125.348 188.761 125.348 192.861C125.348 196.961 131.243 200.284 138.515 200.284Z" fill="#FFB6B6"/>
<path d="M96.3491 102.333L103.871 51.2359C103.871 51.2359 124.787 47.4944 125.521 56.3803C126.255 65.2663 124.996 108.693 124.996 108.693L96.3491 102.333V102.333Z" fill="#6C63FF"/>
<path d="M143.375 46.2088C143.375 46.2088 153.689 41.517 158.04 38.9926C162.391 36.4683 171.034 54.0756 171.226 44.7766C171.418 35.4776 168.432 31.5779 168.432 31.5779C168.432 31.5779 167.686 11.235 151.606 13.7783C151.606 13.7783 155.143 3.60052 143.532 2.0267C131.922 0.452892 113.86 36.1872 115.477 41.5275C117.095 46.8678 119.034 51.2828 114.445 56.9928C109.855 62.7027 101.261 94.9283 107.8 103.6C114.338 112.272 114.768 116.035 110.288 121.429C105.808 126.824 95.2184 138.555 106.668 140.591C118.117 142.628 105.62 141.107 114.156 131.537C122.692 121.968 135.147 122.359 130.497 107.005C125.846 91.6519 133.926 69.6507 132.915 66.313C131.904 62.9753 135.18 41.7808 135.18 41.7808C135.18 41.7808 142.805 40.353 143.375 46.2088V46.2088Z" fill="#2F2E41"/>
<path d="M228.508 71.8677C238.532 71.8677 246.658 61.5106 246.658 48.7345C246.658 35.9583 238.532 25.6012 228.508 25.6012C218.484 25.6012 210.358 35.9583 210.358 48.7345C210.358 61.5106 218.484 71.8677 228.508 71.8677Z" fill="#A0616A"/>
<path d="M229.956 17.6334C229.431 18.0241 228.728 17.4329 228.559 16.6882C228.391 15.9434 228.587 15.1526 228.782 14.4183L229.761 10.7214C230.455 8.09949 231.193 5.38597 232.697 3.39035C234.967 0.378297 238.575 -0.387956 241.823 0.167167C245.994 0.880057 250.11 3.75876 252.049 8.51907C253.989 13.2794 253.163 19.9217 249.659 22.8917C254.653 30.188 256.394 38.3195 256.119 47.9962C255.844 57.6728 247.571 66.5785 242.175 73.3953C240.97 72.4644 239.875 68.1016 240.537 66.5167C241.2 64.9318 240.251 63.0956 241.071 61.6358C241.892 60.1759 242.578 62.5005 241.749 61.0489C241.225 60.1329 243.269 58.0257 242.49 57.4774C238.727 54.8258 237.475 48.8464 235.111 44.2675C232.26 38.7446 227.38 35.0044 222.215 34.3838C219.37 34.042 216.366 34.6611 214.034 36.7661C211.702 38.8712 210.192 42.6328 210.733 46.2089C209.333 44.3967 208.636 41.7408 208.899 39.2193C209.162 36.6978 210.379 34.3662 212.102 33.083C211.054 28.6669 211.952 23.587 214.384 20.1697C216.816 16.7523 226.681 17.3344 230.231 18.2338L229.956 17.6334V17.6334Z" fill="#2F2E41"/>
<path d="M230.508 34.5179C235.21 35.1649 238.605 40.3565 241.472 45.1509C243.125 47.9143 244.856 50.966 244.814 54.4401C244.772 57.9526 242.93 60.9652 242.049 64.2939C240.61 69.7348 242.013 76.2082 245.439 79.9363C242.053 80.7551 238.393 77.5197 237.809 73.1913C237.129 68.1525 240.126 63.2893 239.771 58.1965C239.458 53.7096 236.684 50.2565 234.325 46.9017C231.967 43.5469 229.752 39.0952 230.837 34.8082L230.508 34.5179V34.5179Z" fill="#2F2E41"/>
<path d="M300.807 187.826C296.15 191.202 293.741 197.002 295.428 200.78C297.114 204.558 302.256 204.882 306.915 201.504C308.791 200.186 310.392 198.316 311.584 196.049L331.177 181.425L325.597 169.852L306.874 185.498C304.735 185.645 302.655 186.443 300.807 187.826Z" fill="#FFB6B6"/>
<path d="M367.147 80.5847C366.561 80.289 361.423 77.8093 356.733 81.0832C351.345 84.8441 350.513 93.4293 350.221 96.4405C349.547 103.396 351.533 104.956 351.953 111.997C352.737 125.172 354.806 110.142 351.502 116.156C350.359 118.238 338.68 150.495 332.24 156.814C319.713 169.102 311.759 177.757 311.759 177.757L320.84 190.329C320.84 190.329 335.189 185.456 347.872 174.96C360.882 164.193 367.387 158.809 372.42 148.278C372.853 147.371 383.223 124.926 377.654 100.108C376.384 94.447 374.056 84.0747 367.147 80.5847V80.5847Z" fill="#6C63FF"/>
<path d="M414.038 143.262L413.226 191.547C413.148 196.221 410.152 199.958 406.484 199.958H336.795C333.213 199.958 330.256 196.39 330.061 191.832L327.99 143.547C327.779 138.623 330.854 134.483 334.723 134.483H407.296C411.077 134.483 414.119 138.444 414.038 143.262V143.262Z" fill="#3F3D56"/>
</g>
<defs>
<clipPath id="clip0_49_431">
<rect width="439" height="286" fill="white"/>
</clipPath>
</defs>
</svg>
