<svg width="309" height="212" viewBox="0 0 309 212" fill="none" xmlns="http://www.w3.org/2000/svg">
<g clip-path="url(#clip0_22_49)">
<path d="M284.938 207.508H280.605L278.542 171.064H284.938V207.508Z" fill="#A0616A"/>
<path d="M277.509 206.169H285.867V211.862H272.247C272.247 211.114 272.383 210.374 272.648 209.683C272.912 208.992 273.3 208.365 273.788 207.836C274.277 207.308 274.857 206.888 275.496 206.602C276.134 206.316 276.818 206.169 277.509 206.169Z" fill="#2F2E41"/>
<path d="M306.558 202.579L302.577 204.43L285.489 170.102L291.365 167.37L306.558 202.579Z" fill="#A0616A"/>
<path d="M299.244 204.522L306.922 200.951L309 206.182L296.487 212C296.214 211.313 296.069 210.575 296.06 209.827C296.051 209.08 296.178 208.338 296.434 207.643C296.69 206.949 297.07 206.316 297.552 205.78C298.034 205.244 298.609 204.817 299.244 204.522Z" fill="#2F2E41"/>
<path d="M243.444 48.2257H168.363C167.77 48.225 167.201 47.9697 166.782 47.5158C166.362 47.0619 166.126 46.4466 166.126 45.8047V2.42098C166.126 1.77912 166.362 1.16376 166.782 0.709902C167.201 0.25604 167.77 0.000740139 168.363 0H243.444C244.038 0.000740141 244.607 0.25604 245.026 0.709902C245.446 1.16376 245.681 1.77912 245.682 2.42098V45.8047C245.681 46.4466 245.446 47.0619 245.026 47.5158C244.607 47.9697 244.038 48.225 243.444 48.2257V48.2257Z" fill="#E6E6E6"/>
<path d="M181.187 30.359C185.746 30.359 189.442 26.36 189.442 21.427C189.442 16.494 185.746 12.495 181.187 12.495C176.627 12.495 172.931 16.494 172.931 21.427C172.931 26.36 176.627 30.359 181.187 30.359Z" fill="white"/>
<path d="M234.348 13.4291H200.64C200.305 13.4291 199.984 13.2853 199.747 13.0291C199.511 12.773 199.378 12.4257 199.378 12.0635C199.378 11.7012 199.511 11.3539 199.747 11.0978C199.984 10.8416 200.305 10.6978 200.64 10.6978H234.348C234.682 10.6978 235.003 10.8416 235.24 11.0978C235.477 11.3539 235.61 11.7012 235.61 12.0635C235.61 12.4257 235.477 12.773 235.24 13.0291C235.003 13.2853 234.682 13.4291 234.348 13.4291V13.4291Z" fill="white"/>
<path d="M216.701 19.6724H200.64C200.305 19.6724 199.984 19.5285 199.747 19.2724C199.511 19.0163 199.378 18.6689 199.378 18.3067C199.378 17.9445 199.511 17.5972 199.747 17.341C199.984 17.0849 200.305 16.941 200.64 16.941H216.701C217.036 16.941 217.357 17.0849 217.594 17.341C217.831 17.5972 217.964 17.9445 217.964 18.3067C217.964 18.6689 217.831 19.0163 217.594 19.2724C217.357 19.5285 217.036 19.6724 216.701 19.6724V19.6724Z" fill="white"/>
<path d="M228.014 25.9128H200.64C200.305 25.9128 199.984 25.769 199.747 25.5128C199.511 25.2567 199.378 24.9094 199.378 24.5471C199.378 24.1849 199.511 23.8376 199.747 23.5815C199.984 23.3253 200.305 23.1815 200.64 23.1815H228.014C228.348 23.1815 228.669 23.3253 228.906 23.5815C229.143 23.8376 229.276 24.1849 229.276 24.5471C229.276 24.9094 229.143 25.2567 228.906 25.5128C228.669 25.769 228.348 25.9128 228.014 25.9128V25.9128Z" fill="white"/>
<path d="M234.348 32.1533H200.64C200.305 32.1533 199.984 32.0094 199.747 31.7533C199.511 31.4972 199.378 31.1498 199.378 30.7876C199.378 30.4254 199.511 30.0781 199.747 29.8219C199.984 29.5658 200.305 29.4219 200.64 29.4219H234.348C234.682 29.4219 235.003 29.5658 235.24 29.8219C235.477 30.0781 235.61 30.4254 235.61 30.7876C235.61 31.1498 235.477 31.4972 235.24 31.7533C235.003 32.0094 234.682 32.1533 234.348 32.1533V32.1533Z" fill="white"/>
<path d="M233.292 43.4436H227.711C227.406 43.4441 227.104 43.3797 226.823 43.2539C226.541 43.1281 226.285 42.9435 226.069 42.7106C225.854 42.4777 225.682 42.201 225.566 41.8965C225.449 41.5919 225.389 41.2655 225.389 40.9358C225.389 40.6061 225.449 40.2797 225.566 39.9751C225.682 39.6706 225.854 39.394 226.069 39.161C226.285 38.9281 226.541 38.7435 226.823 38.6177C227.104 38.4919 227.406 38.4275 227.711 38.428H233.292C233.907 38.428 234.496 38.6923 234.931 39.1625C235.366 39.6328 235.61 40.2707 235.61 40.9358C235.61 41.6009 235.366 42.2388 234.931 42.7091C234.496 43.1794 233.907 43.4436 233.292 43.4436V43.4436Z" fill="white"/>
<path d="M131.774 52.2662H79.3506C78.9364 52.2657 78.5393 52.0875 78.2464 51.7706C77.9534 51.4537 77.7887 51.024 77.7882 50.5759V20.2843C77.7887 19.8361 77.9534 19.4064 78.2464 19.0895C78.5393 18.7726 78.9364 18.5944 79.3506 18.5939H131.774C132.188 18.5944 132.586 18.7726 132.878 19.0895C133.171 19.4064 133.336 19.8361 133.337 20.2843V50.5759C133.336 51.024 133.171 51.4537 132.878 51.7706C132.586 52.0875 132.188 52.2657 131.774 52.2662V52.2662Z" fill="#F2F2F2"/>
<path d="M88.3042 39.7912C91.4878 39.7912 94.0686 36.9991 94.0686 33.5547C94.0686 30.1104 91.4878 27.3182 88.3042 27.3182C85.1207 27.3182 82.5399 30.1104 82.5399 33.5547C82.5399 36.9991 85.1207 39.7912 88.3042 39.7912Z" fill="white"/>
<path d="M125.422 27.9704H101.887C101.653 27.9704 101.429 27.8699 101.264 27.6911C101.099 27.5123 101.006 27.2698 101.006 27.0169C101.006 26.764 101.099 26.5214 101.264 26.3426C101.429 26.1638 101.653 26.0633 101.887 26.0633H125.422C125.656 26.0633 125.88 26.1638 126.046 26.3426C126.211 26.5214 126.304 26.764 126.304 27.0169C126.304 27.2698 126.211 27.5123 126.046 27.6911C125.88 27.8699 125.656 27.9704 125.422 27.9704V27.9704Z" fill="white"/>
<path d="M113.102 32.3296H101.887C101.654 32.3291 101.43 32.2284 101.265 32.0497C101.1 31.8709 101.007 31.6286 101.007 31.3761C101.007 31.1235 101.1 30.8812 101.265 30.7024C101.43 30.5237 101.654 30.423 101.887 30.4225H113.102C113.335 30.423 113.559 30.5237 113.724 30.7024C113.889 30.8812 113.981 31.1235 113.981 31.3761C113.981 31.6286 113.889 31.8709 113.724 32.0497C113.559 32.2284 113.335 32.3291 113.102 32.3296V32.3296Z" fill="white"/>
<path d="M121 36.6869H101.887C101.654 36.6864 101.43 36.5857 101.265 36.407C101.1 36.2282 101.007 35.9859 101.007 35.7333C101.007 35.4808 101.1 35.2385 101.265 35.0597C101.43 34.881 101.654 34.7803 101.887 34.7798H121C121.233 34.7803 121.457 34.881 121.622 35.0597C121.787 35.2385 121.88 35.4808 121.88 35.7333C121.88 35.9859 121.787 36.2282 121.622 36.407C121.457 36.5857 121.233 36.6864 121 36.6869V36.6869Z" fill="white"/>
<path d="M125.423 41.0441H101.887C101.654 41.0436 101.43 40.943 101.265 40.7642C101.1 40.5854 101.007 40.3432 101.007 40.0906C101.007 39.838 101.1 39.5958 101.265 39.417C101.43 39.2382 101.654 39.1375 101.887 39.137H125.423C125.538 39.1368 125.653 39.1613 125.76 39.2091C125.867 39.2569 125.965 39.3271 126.047 39.4157C126.129 39.5042 126.194 39.6094 126.238 39.7252C126.283 39.8411 126.306 39.9652 126.306 40.0906C126.306 40.216 126.283 40.3401 126.238 40.4559C126.194 40.5718 126.129 40.677 126.047 40.7655C125.965 40.8541 125.867 40.9243 125.76 40.9721C125.653 41.0199 125.538 41.0444 125.423 41.0441V41.0441Z" fill="white"/>
<path d="M124.685 48.9273H120.789C120.359 48.9273 119.948 48.7428 119.644 48.4144C119.341 48.086 119.17 47.6407 119.17 47.1763C119.17 46.7119 119.341 46.2665 119.644 45.9381C119.948 45.6098 120.359 45.4253 120.789 45.4253H124.685C125.115 45.4253 125.526 45.6098 125.83 45.9381C126.133 46.2665 126.304 46.7119 126.304 47.1763C126.304 47.6407 126.133 48.086 125.83 48.4144C125.526 48.7428 125.115 48.9273 124.685 48.9273Z" fill="white"/>
<path d="M221.45 99.1729H123.42C122.645 99.172 121.902 98.8386 121.355 98.246C120.807 97.6534 120.499 96.85 120.498 96.012V39.3678C120.499 38.5298 120.807 37.7263 121.355 37.1337C121.902 36.5412 122.645 36.2078 123.42 36.2068H221.45C222.224 36.2078 222.967 36.5412 223.515 37.1337C224.062 37.7263 224.37 38.5298 224.371 39.3678V96.012C224.37 96.85 224.062 97.6534 223.515 98.246C222.967 98.8386 222.224 99.172 221.45 99.1729Z" fill="#6C63FF"/>
<path d="M140.162 75.8452C146.116 75.8452 150.942 70.6239 150.942 64.1831C150.942 57.7423 146.116 52.521 140.162 52.521C134.209 52.521 129.383 57.7423 129.383 64.1831C129.383 70.6239 134.209 75.8452 140.162 75.8452Z" fill="white"/>
<path d="M209.572 53.7407H165.562C165.125 53.7407 164.706 53.5528 164.396 53.2184C164.087 52.884 163.914 52.4305 163.914 51.9576C163.914 51.4846 164.087 51.0311 164.396 50.6967C164.706 50.3623 165.125 50.1744 165.562 50.1744H209.572C209.789 50.1744 210.003 50.2206 210.203 50.3102C210.403 50.3998 210.585 50.5311 210.738 50.6967C210.891 50.8623 211.012 51.0589 211.095 51.2752C211.178 51.4915 211.22 51.7234 211.22 51.9576C211.22 52.1917 211.178 52.4236 211.095 52.6399C211.012 52.8563 210.891 53.0528 210.738 53.2184C210.585 53.384 210.403 53.5153 210.203 53.605C210.003 53.6946 209.789 53.7407 209.572 53.7407V53.7407Z" fill="white"/>
<path d="M186.532 61.8922H165.562C165.125 61.8922 164.705 61.7043 164.396 61.3699C164.087 61.0355 163.914 60.582 163.914 60.1091C163.914 59.6361 164.087 59.1826 164.396 58.8482C164.705 58.5138 165.125 58.3259 165.562 58.3259H186.532C186.97 58.3259 187.389 58.5138 187.698 58.8482C188.007 59.1826 188.181 59.6361 188.181 60.1091C188.181 60.582 188.007 61.0355 187.698 61.3699C187.389 61.7043 186.97 61.8922 186.532 61.8922V61.8922Z" fill="white"/>
<path d="M201.302 70.0401H165.562C165.125 70.0401 164.706 69.8523 164.396 69.5179C164.087 69.1835 163.914 68.7299 163.914 68.257C163.914 67.7841 164.087 67.3305 164.396 66.9961C164.706 66.6617 165.125 66.4739 165.562 66.4739H201.302C201.739 66.4739 202.159 66.6617 202.468 66.9961C202.777 67.3305 202.95 67.7841 202.95 68.257C202.95 68.7299 202.777 69.1835 202.468 69.5179C202.159 69.8523 201.739 70.0401 201.302 70.0401V70.0401Z" fill="white"/>
<path d="M209.572 78.188H165.562C165.125 78.188 164.706 78.0001 164.396 77.6657C164.087 77.3313 163.914 76.8778 163.914 76.4049C163.914 75.932 164.087 75.4784 164.396 75.144C164.706 74.8096 165.125 74.6218 165.562 74.6218H209.572C210.009 74.6218 210.429 74.8096 210.738 75.144C211.047 75.4784 211.22 75.932 211.22 76.4049C211.22 76.8778 211.047 77.3313 210.738 77.6657C210.429 78.0001 210.009 78.188 209.572 78.188V78.188Z" fill="white"/>
<path d="M208.194 92.9291H200.907C200.509 92.9295 200.115 92.8452 199.748 92.6809C199.38 92.5165 199.046 92.2754 198.765 91.9713C198.483 91.6672 198.26 91.3061 198.108 90.9086C197.956 90.5112 197.877 90.0851 197.877 89.6548C197.877 89.2245 197.956 88.7985 198.108 88.401C198.26 88.0035 198.483 87.6424 198.765 87.3383C199.046 87.0342 199.38 86.7931 199.748 86.6288C200.115 86.4645 200.509 86.3801 200.907 86.3806H208.194C208.592 86.3801 208.986 86.4645 209.353 86.6288C209.721 86.7931 210.055 87.0342 210.336 87.3383C210.617 87.6424 210.841 88.0035 210.993 88.401C211.145 88.7985 211.224 89.2245 211.224 89.6548C211.224 90.0851 211.145 90.5112 210.993 90.9086C210.841 91.3061 210.617 91.6672 210.336 91.9713C210.055 92.2754 209.721 92.5165 209.353 92.6809C208.986 92.8452 208.592 92.9295 208.194 92.9291Z" fill="white"/>
<path d="M307.195 171.12C307.195 171.12 298.605 123.736 297.251 119.742C296.505 117.559 296.014 115.971 296.014 115.971L270.77 117.533L270.564 119.742L267.161 175.159C267.161 175.159 268.364 171.637 269.444 170.99C270.523 170.343 270.41 175.151 270.41 175.151" fill="#2F2E41"/>
<path d="M270.964 117.513H293.058C292.438 115.111 293.058 112.885 293.945 111.177C294.564 109.977 295.343 108.883 296.258 107.929L296.41 107.782L304.129 105.93L304.544 105.832C304.544 105.832 304.606 90.6575 299.641 88.5752C296.914 87.4467 294.351 85.8981 292.032 83.9775C291.804 83.7827 291.524 83.6718 291.233 83.661L280.396 83.2318C280.063 83.2196 279.737 83.3382 279.478 83.5656C277.687 85.1243 271.989 88.2532 268.926 89.89C268.387 90.1769 267.972 90.6772 267.766 91.2867C267.56 91.8962 267.579 92.5682 267.819 93.1631C269.042 96.2021 271.121 101.285 271.339 101.285C271.651 101.285 270.964 117.513 270.964 117.513Z" fill="#6C63FF"/>
<path d="M285.943 92.9017L296.327 121.951C296.327 121.951 289.307 123.702 282.536 114.749L280.092 108.979L274.587 86.9867L285.943 92.9017Z" fill="#F6F8FB"/>
<path d="M288.7 77.3505C296.483 77.3505 302.792 70.5242 302.792 62.1035C302.792 53.6829 296.483 46.8566 288.7 46.8566C280.916 46.8566 274.607 53.6829 274.607 62.1035C274.607 70.5242 280.916 77.3505 288.7 77.3505Z" fill="#2F2E41"/>
<path d="M279.76 113.188C280.146 113.711 280.677 114.085 281.274 114.256C281.872 114.426 282.505 114.384 283.079 114.135L290.628 117.331L293.144 111.178L284.637 109.99C284.472 109.585 284.229 109.223 283.924 108.928C283.619 108.633 283.26 108.412 282.87 108.279C282.48 108.146 282.069 108.105 281.663 108.158C281.257 108.211 280.866 108.357 280.516 108.586C280.167 108.815 279.866 109.123 279.635 109.488C279.404 109.852 279.247 110.266 279.176 110.702C279.104 111.137 279.119 111.584 279.22 112.013C279.321 112.442 279.505 112.842 279.76 113.188V113.188Z" fill="#A0616A"/>
<path d="M286.563 81.026C291.544 81.026 295.582 76.6573 295.582 71.2684C295.582 65.8794 291.544 61.5107 286.563 61.5107C281.582 61.5107 277.544 65.8794 277.544 71.2684C277.544 76.6573 281.582 81.026 286.563 81.026Z" fill="#A0616A"/>
<path d="M299.246 64.8055C294.45 67.6307 289.051 69.0419 283.592 68.8975C281.501 68.8388 279.197 68.4273 277.873 66.6755C276.379 64.6989 276.753 61.6106 278.194 59.5885C279.635 57.5665 281.89 56.4265 284.14 55.6535C286.268 54.922 288.549 54.451 290.731 54.9623C291.883 55.2321 292.967 55.7672 293.911 56.531C294.855 57.2948 295.635 58.2696 296.2 59.3889C296.764 60.5083 297.099 61.746 297.182 63.0179C297.264 64.2898 297.093 65.566 296.679 66.7599" fill="#2F2E41"/>
<path d="M298.668 59.8723C303.034 59.8723 306.573 56.0429 306.573 51.3191C306.573 46.5953 303.034 42.7659 298.668 42.7659C294.301 42.7659 290.762 46.5953 290.762 51.3191C290.762 56.0429 294.301 59.8723 298.668 59.8723Z" fill="#2F2E41"/>
<path d="M301.499 101.8L304.542 105.832L305.162 116.776C305.162 116.776 305.961 122.349 300.072 121.007C294.184 119.665 286.606 117.055 286.606 117.055C286.606 117.055 290.638 110.731 288.839 108.919L297.28 111.874C297.28 111.874 298.707 111.537 297.589 110.195C296.471 108.853 296.274 106.434 296.274 106.434L301.499 101.8Z" fill="#6C63FF"/>
<path d="M285.876 111.275C285.29 111.488 284.656 111.491 284.068 111.283C283.48 111.076 282.97 110.669 282.613 110.123L274.668 108.377L275.64 101.731L283.382 105.726C283.724 105.483 284.11 105.322 284.514 105.253C284.917 105.184 285.33 105.209 285.724 105.326C286.119 105.444 286.485 105.651 286.8 105.933C287.114 106.216 287.369 106.568 287.548 106.966C287.727 107.364 287.825 107.798 287.836 108.24C287.847 108.682 287.771 109.122 287.613 109.53C287.455 109.938 287.218 110.304 286.918 110.605C286.619 110.906 286.263 111.135 285.876 111.275V111.275Z" fill="#A0616A"/>
<path d="M275.39 95.9089C275.39 95.9089 274.012 97.8255 272.399 98.2967C270.787 98.7679 271.817 99.8884 271.817 99.8884L280.389 102.361C277.969 102.826 278.186 110.505 278.186 110.505C278.186 110.505 270.511 108.25 264.892 105.921C259.272 103.592 262.738 99.3796 262.738 99.3796L268.746 90.5503L273.324 88.9492L275.39 95.9089Z" fill="#6C63FF"/>
<path d="M12.5208 200.22L16.6568 202.143L25.4813 185.799L19.3771 182.96L12.5208 200.22Z" fill="#FFB8B8"/>
<path d="M22.9828 210.007L9.98384 203.963L12.1423 198.53L20.3067 202.326C21.5889 202.922 22.5997 204.045 23.1167 205.447C23.6337 206.85 23.6146 208.417 23.0636 209.804L22.9828 210.007L22.9828 210.007Z" fill="#2F2E41"/>
<path d="M41.0505 205.728H45.5526L47.6951 186.941H41.0505V205.728Z" fill="#FFB8B8"/>
<path d="M54.2346 210.25H40.086V204.336H48.9725C50.3681 204.336 51.7065 204.936 52.6934 206.004C53.6802 207.071 54.2346 208.519 54.2346 210.029V210.25L54.2346 210.25Z" fill="#2F2E41"/>
<g opacity="0.1">
<path d="M13.6447 62.398L13.8991 62.457C13.8248 62.4024 13.7334 62.3812 13.6447 62.398V62.398Z" fill="url(#paint0_linear_22_49)"/>
</g>
<path d="M48.6538 188.905L38.2987 189.349C35.7706 187.51 27.9221 144.072 27.9221 144.072C27.9756 144.408 26.9401 187.186 26.9401 187.186H15.7994L10.3259 120.479L16.3671 123.11C16.3671 123.11 44.0302 120.683 45.3193 122.41C45.5906 122.974 48.6538 188.905 48.6538 188.905Z" fill="#2F2E41"/>
<path d="M25.3329 73.2165C30.3139 73.2165 34.3517 68.8479 34.3517 63.4589C34.3517 58.0699 30.3139 53.7013 25.3329 53.7013C20.3519 53.7013 16.314 58.0699 16.314 63.4589C16.314 68.8479 20.3519 73.2165 25.3329 73.2165Z" fill="#FFB8B8"/>
<path d="M40.6153 140.487C40.2265 139.934 40.0128 139.26 40.0057 138.566C39.9987 137.871 40.1986 137.192 40.576 136.63L39.5166 127.59L45.8843 126.411L44.8312 135.984C45.166 136.267 45.4413 136.623 45.6386 137.03C45.8358 137.437 45.9506 137.885 45.9753 138.344C46 138.803 45.9339 139.262 45.7816 139.691C45.6293 140.12 45.3941 140.508 45.0919 140.831C44.7896 141.154 44.4272 141.403 44.0289 141.563C43.6305 141.722 43.2053 141.788 42.7816 141.755C42.358 141.722 41.9456 141.593 41.572 141.374C41.1985 141.155 40.8723 140.853 40.6153 140.487H40.6153Z" fill="#FFB8B8"/>
<path d="M26.6992 56.9141L26.898 56.9601C26.8396 56.9183 26.7685 56.9019 26.6992 56.9141V56.9141Z" fill="#E1E7EF"/>
<path d="M22.4369 59.8017C24.4004 60.2658 26.3986 60.7084 28.404 60.5642C30.4095 60.4199 32.4549 59.6165 33.7571 57.9602C35.0594 56.3039 35.4196 53.7033 34.2637 51.9243C32.8893 49.809 30.1332 49.5554 27.7438 49.5018L20.2148 49.3329C18.7272 49.2995 17.1663 49.2838 15.8488 50.0319C13.5599 51.3316 12.7697 54.4884 12.8155 57.2848C12.876 59.9588 13.4704 62.5871 14.5578 64.9894C15.6453 67.3916 17.2 69.511 19.1155 71.2023C20.1345 72.0895 21.812 72.7641 22.5887 71.6255C22.9273 71.1291 19.6208 65.4157 19.6113 64.7987C19.5558 61.2126 22.8113 62.6733 22.7558 59.0871" fill="#2F2E41"/>
<path d="M13.7453 122.94C22.3277 130.201 31.801 133.862 42.5247 132.467C37.9956 115.262 36.6522 98.1877 41.0213 81.3469L32.0009 76.932L19.7589 76.2349L12.3894 78.58C11.3528 78.9102 10.4452 79.6 9.80647 80.5431C9.16774 81.4862 8.83328 82.6304 8.8546 83.7993C9.11482 98.1614 10.3346 111.602 13.7453 122.94Z" fill="#E6E6E6"/>
<path d="M40.8065 133.861L46.3906 134.558L45.0831 89.6963C45.0247 87.6918 44.4339 85.7479 43.3815 84.0969C42.3291 82.4459 40.8595 81.1578 39.1484 80.3864L37.1554 79.488L37.6923 100.517L40.8065 133.861Z" fill="#E6E6E6"/>
<path d="M13.4351 130.835C12.8758 130.493 12.433 129.966 12.1724 129.331C11.9117 128.696 11.8471 127.987 11.988 127.309L7.7085 119.461L13.125 115.652L15.6596 124.894C16.0705 125.01 16.4537 125.22 16.7837 125.509C17.1137 125.799 17.383 126.161 17.5734 126.572C17.7639 126.982 17.8712 127.432 17.8882 127.891C17.9052 128.35 17.8315 128.808 17.672 129.234C17.5125 129.66 17.271 130.044 16.9634 130.361C16.6558 130.678 16.2893 130.92 15.8883 131.072C15.4873 131.223 15.0611 131.28 14.6381 131.24C14.215 131.199 13.8049 131.061 13.4351 130.835V130.835Z" fill="#FFB8B8"/>
<path d="M11.1681 127.355L16.3962 123.183L10.7385 105.048L12.7789 78.4424C8.3467 79.9494 3.58771 83.9979 2.80387 88.9523L0 106.674L11.1681 127.355Z" fill="#E6E6E6"/>
<path opacity="0.2" d="M13.3794 100.776L11.0782 110.734L16.3 124.865L12.3173 111.5L13.3794 100.776Z" fill="black"/>
<path opacity="0.2" d="M36.1721 105.939L37.9485 127.277L34.9406 106.087L36.1721 105.939Z" fill="black"/>
</g>
<defs>
<linearGradient id="paint0_linear_22_49" x1="13.7719" y1="62.4717" x2="13.7719" y2="62.4054" gradientUnits="userSpaceOnUse">
<stop stop-color="#808080" stop-opacity="0.25"/>
<stop offset="0.54" stop-color="#808080" stop-opacity="0.12"/>
<stop offset="1" stop-color="#808080" stop-opacity="0.1"/>
</linearGradient>
<clipPath id="clip0_22_49">
<rect width="309" height="212" fill="white"/>
</clipPath>
</defs>
</svg>
