<svg width="239" height="199" viewBox="0 0 239 199" fill="none" xmlns="http://www.w3.org/2000/svg">
<path d="M161.103 141.074H75.367C68.1604 141.074 62.2975 135.838 62.2975 129.403V52.8434C62.2975 46.4081 68.1604 41.1727 75.367 41.1727H161.103C168.309 41.1727 174.172 46.4081 174.172 52.8434V129.403C174.172 135.838 168.309 141.074 161.103 141.074ZM75.367 43.04C69.3038 43.04 64.3886 47.4291 64.3886 52.8434V129.403C64.3886 134.817 69.3038 139.206 75.367 139.206H135.423C155.669 139.206 172.081 124.55 172.081 106.471V52.8434C172.081 47.4291 167.166 43.04 161.103 43.04H75.367V43.04Z" fill="#F2F2F2"/>
<path d="M84.6102 51.0014C80.5524 51.0014 77.2513 53.9491 77.2513 57.5726V67.858C77.2513 71.4815 80.5524 74.4293 84.6102 74.4293H96.1284C100.186 74.4293 103.487 71.4815 103.487 67.858V57.5726C103.487 53.9491 100.186 51.0014 96.1284 51.0014H84.6102Z" fill="#F2F2F2"/>
<path d="M84.6102 79.9562C80.5524 79.9562 77.2513 82.9039 77.2513 86.5274V96.8128C77.2513 100.436 80.5524 103.384 84.6102 103.384H96.1284C100.186 103.384 103.487 100.436 103.487 96.8128V86.5274C103.487 82.9039 100.186 79.9562 96.1284 79.9562H84.6102Z" fill="#F2F2F2"/>
<path d="M84.6102 108.911C80.5524 108.911 77.2513 111.859 77.2513 115.482V125.768C77.2513 129.391 80.5524 132.339 84.6102 132.339H96.1284C100.186 132.339 103.487 129.391 103.487 125.768V115.482C103.487 111.859 100.186 108.911 96.1284 108.911H84.6102Z" fill="#F2F2F2"/>
<path d="M92.2483 25.9072C87.1354 25.9072 82.976 29.6215 82.976 34.1872V47.1471C82.976 51.7128 87.1354 55.4271 92.2483 55.4271H106.762C111.875 55.4271 116.034 51.7128 116.034 47.1471V34.1872C116.034 29.6215 111.875 25.9072 106.762 25.9072H92.2483Z" fill="#6C63FF"/>
<path d="M140.03 62.1248C134.917 62.1248 130.757 65.8391 130.757 70.4048V83.3647C130.757 87.9305 134.917 91.6447 140.03 91.6447H154.543C159.656 91.6447 163.815 87.9304 163.815 83.3647V70.4048C163.815 65.8391 159.656 62.1248 154.543 62.1248H140.03Z" fill="#6C63FF"/>
<path d="M119.257 192.572L116.308 192.549L115.003 182.157L119.355 182.19L119.257 192.572Z" fill="#A0616A"/>
<path d="M109.813 196.758C109.806 197.406 110.391 197.94 111.12 197.946L116.982 197.989L118.008 196.132L118.385 197.999L120.597 198.017L120.038 191.358L119.269 191.312L116.13 191.119L115.117 191.058L115.099 192.942L110.39 195.795C110.032 196.012 109.816 196.372 109.813 196.758H109.813Z" fill="#2F2E41"/>
<path d="M134.258 192.572L131.309 192.549L130.004 182.157L134.356 182.19L134.258 192.572Z" fill="#A0616A"/>
<path d="M124.814 196.758C124.807 197.406 125.392 197.94 126.121 197.946L131.983 197.989L133.009 196.132L133.386 197.999L135.598 198.017L135.039 191.358L134.27 191.312L131.131 191.119L130.118 191.058L130.1 192.942L125.391 195.795C125.033 196.012 124.817 196.372 124.814 196.758Z" fill="#2F2E41"/>
<path d="M107.687 108.553L119.638 108.89L130.96 111.137C130.96 111.137 129.828 112.372 133.602 115.742C133.602 115.742 138.634 123.606 135.112 131.245L133.602 161.801C133.602 161.801 138.004 183.341 134.641 190.197L130.196 190.445L122.675 162.05L119.009 131.47L117.248 161.576C117.248 161.576 123.986 182.241 119.731 190.445L114.917 190.197L106.68 161.576C106.68 161.576 103.158 128.549 103.661 122.258C104.164 115.967 107.687 108.553 107.687 108.553H107.687Z" fill="#2F2E41"/>
<path d="M147.822 60.2695C146.188 60.6472 145.207 62.1361 145.63 63.595C145.824 64.2635 146.28 64.8074 146.874 65.1667L146.874 65.1704L146.642 70.1834L150.938 71.9586L151.281 64.2445L151.251 64.2453C151.623 63.6528 151.752 62.9368 151.546 62.227C151.123 60.7681 149.456 59.8917 147.822 60.2695V60.2695Z" fill="#A0616A"/>
<path d="M123.812 78.1605C122.909 77.3617 122.386 76.2787 122.366 75.101C122.34 73.5211 123.226 72.0872 124.738 71.2653C126.478 70.3187 128.654 70.4145 130.282 71.5089L143.773 80.5789L146.176 67.5129L151.337 68.9964L150.106 86.0102C150.019 87.2003 149.266 88.2487 148.091 88.8147C146.915 89.3806 145.52 89.3665 144.36 88.7768L124.864 78.8723C124.473 78.6733 124.12 78.4334 123.812 78.1605V78.1605Z" fill="#3F3D56"/>
<path d="M103.242 52.9609C104.104 54.2563 103.627 55.9308 102.176 56.7009C101.512 57.0537 100.759 57.1528 100.054 57.0348L100.051 57.0376L96.2632 60.7432L91.8127 59.3031L97.6513 53.6093L97.6719 53.6287C97.8746 52.9737 98.3477 52.3844 99.0535 52.0097C100.504 51.2396 102.379 51.6655 103.242 52.9609Z" fill="#A0616A"/>
<path d="M104.878 80.6052L83.2241 75.3821C81.9348 75.0711 80.9332 74.2043 80.5446 73.0633C80.156 71.9223 80.4478 70.7042 81.3248 69.8049L93.8648 56.9485L98.6993 59.1395L90.1045 69.9295L106.836 71.9698C108.855 72.216 110.476 73.5163 110.965 75.2827C111.391 76.8165 110.89 78.3922 109.625 79.4976C108.683 80.3216 107.457 80.7616 106.186 80.7614C105.752 80.7614 105.313 80.7101 104.878 80.6052H104.878Z" fill="#3F3D56"/>
<path d="M135.749 113.048L105.469 114.288C104.637 113.161 104.862 111.465 106.027 109.341C110.425 101.324 107.085 86.1566 104.838 78.2588C104.208 76.0429 105.9 73.84 108.448 73.6125L111.303 73.3575L113.942 66.1636H123.185L127.019 70.0755L133.527 73.6056C132.342 84.5006 127.295 99.8852 134.485 107.6C136.058 109.288 136.504 111.113 135.749 113.048Z" fill="#3F3D56"/>
<path d="M117.387 66.3298C122.36 66.3298 126.39 62.7305 126.39 58.2905C126.39 53.8506 122.36 50.2513 117.387 50.2513C112.415 50.2513 108.385 53.8506 108.385 58.2905C108.385 62.7305 112.415 66.3298 117.387 66.3298Z" fill="#A0616A"/>
<path d="M127.575 53.1446C128.827 49.0667 115.176 45.5698 112.523 48.8537C112.154 48.3869 110.791 48.1033 110.165 48.2465C109.54 48.3897 109.014 48.7478 108.5 49.0944C107.795 49.5784 107.063 50.0797 106.63 50.7758C106.194 51.4689 106.127 52.4142 106.714 53.0157C107.179 53.4941 107.996 56.036 108.695 56.1621C109.183 56.2509 109.594 56.3225 109.946 56.374C110.261 55.9644 111.062 55.4499 111.005 54.9543C111.479 55.2351 111.306 55.7289 111.21 56.2337C110.892 57.9144 103.711 70.9254 107.824 67.0914C108.231 67.3062 108.735 67.5067 109.315 67.69C110.3 66.3638 111.108 64.7999 111.641 63.1643L111.644 63.1945C111.828 64.6159 112.991 65.7821 114.53 66.1803C120.704 67.7773 125.697 65.4339 127.415 61.2078C126.786 60.0677 126.512 60.1916 126.569 60.1577C127.354 59.6852 128.432 59.9942 128.77 60.784C128.869 61.0169 128.96 61.2157 129.038 61.3653C129.933 58.5066 130.997 58.9193 127.575 53.1446H127.575Z" fill="#2F2E41"/>
<path d="M123.316 50.1859L122.685 47.3071C122.632 47.0651 122.582 46.8025 122.704 46.5814C122.861 46.2973 123.265 46.1795 123.616 46.2248C123.967 46.2701 124.23 46.5565 124.579 46.6117C125.794 46.8034 127.4 45.732 127.835 48.4425C128.016 49.5727 130.036 49.692 130.71 50.6619C131.385 51.6319 131.468 53.0318 130.547 53.8242C129.812 54.4571 128.631 54.5301 127.677 54.2069C126.722 53.8836 125.956 53.2306 125.286 52.542C124.617 51.8534 124.011 51.1083 123.239 50.5115" fill="#2F2E41"/>
<path d="M128.056 54.5647C125.592 54.2574 123.913 53.4573 123.065 52.187C121.955 50.524 122.698 48.693 122.731 48.6158L123.251 48.7887C123.244 48.8055 122.57 50.4816 123.545 51.9372C124.304 53.0695 125.847 53.7883 128.132 54.0734L128.056 54.5647Z" fill="#6C63FF"/>
<path d="M139.616 23.4581C132.374 23.4581 126.481 18.1961 126.481 11.7291C126.481 5.26204 132.374 0 139.616 0C146.858 0 152.751 5.26204 152.751 11.7291C152.751 18.1961 146.858 23.4581 139.616 23.4581ZM139.616 4.69163C135.27 4.69163 131.735 7.8484 131.735 11.7291C131.735 15.6097 135.27 18.7665 139.616 18.7665C143.962 18.7665 147.497 15.6097 147.497 11.7291C147.497 7.8484 143.962 4.69163 139.616 4.69163Z" fill="#6C63FF"/>
<path d="M159.825 31.4291C159.181 31.4291 158.536 31.2195 158.029 30.7945L145.701 20.4777C144.642 19.5923 144.588 18.1079 145.581 17.1629C146.571 16.2145 148.233 16.1675 149.293 17.0552L161.621 27.372C162.68 28.2574 162.734 29.7419 161.741 30.6868C161.224 31.1805 160.525 31.4291 159.825 31.4291Z" fill="#6C63FF"/>
<path d="M215.542 192.308C216.435 192.358 216.929 191.367 216.253 190.79L216.186 190.551C216.195 190.532 216.203 190.513 216.212 190.494C217.116 188.571 220.177 188.584 221.072 190.51C221.867 192.22 222.879 193.932 223.129 195.74C223.24 196.538 223.19 197.35 222.992 198.133C224.854 194.5 225.834 190.533 225.834 186.543C225.834 185.541 225.773 184.539 225.647 183.539C225.544 182.721 225.402 181.908 225.217 181.103C224.22 176.749 222.062 172.602 218.948 169.139C217.452 168.408 216.203 167.266 215.449 165.897C215.179 165.403 214.966 164.872 214.866 164.331C215.036 164.351 215.508 162.034 215.38 161.892C215.617 161.571 216.042 161.411 216.301 161.097C217.59 159.536 219.367 159.808 220.294 161.93C222.275 162.823 222.295 164.303 221.079 165.727C220.306 166.633 220.199 167.859 219.521 168.829C219.591 168.909 219.663 168.986 219.733 169.066C221.013 170.533 222.12 172.108 223.054 173.764C222.79 171.924 223.179 169.707 223.843 168.278C224.599 166.65 226.016 165.279 227.263 163.871C228.762 162.181 231.835 162.919 232.099 165.062C232.101 165.083 232.104 165.103 232.106 165.124C231.921 165.217 231.739 165.317 231.562 165.421C230.551 166.019 230.9 167.419 232.099 167.584L232.126 167.588C232.059 168.184 231.944 168.775 231.777 169.356C233.377 174.882 229.922 176.895 224.988 176.986C224.879 177.036 224.773 177.085 224.664 177.133C225.164 178.39 225.564 179.679 225.86 180.985C226.125 182.14 226.309 183.307 226.412 184.479C226.541 185.957 226.53 187.444 226.39 188.92L226.398 188.867C226.753 187.242 227.742 185.723 229.177 184.671C231.315 183.102 234.336 182.525 236.643 181.264C237.753 180.657 239.176 181.441 238.982 182.591L238.973 182.646C238.629 182.771 238.294 182.915 237.97 183.077C237.785 183.171 237.603 183.27 237.426 183.375C236.415 183.972 236.764 185.372 237.963 185.537L237.99 185.541C238.009 185.544 238.026 185.546 238.046 185.549C237.456 186.798 236.635 187.957 235.608 188.957C234.607 193.782 230.309 194.24 225.712 192.835H225.709C225.206 194.79 224.472 196.7 223.528 198.52H215.737C215.709 198.443 215.684 198.363 215.659 198.285C216.379 198.325 217.105 198.288 217.815 198.171C217.237 197.537 216.659 196.899 216.081 196.266C216.067 196.253 216.055 196.241 216.044 196.228C215.751 195.904 215.455 195.583 215.162 195.258L215.162 195.258C215.143 194.263 215.277 193.271 215.542 192.309L215.542 192.308Z" fill="#F2F2F2"/>
<path d="M0 198.541C0 198.795 0.229151 199 0.514506 199H238.425C238.71 199 238.939 198.795 238.939 198.541C238.939 198.286 238.71 198.081 238.425 198.081H0.514506C0.229151 198.081 0 198.286 0 198.541Z" fill="#CCCCCC"/>
</svg>
